Coordinates
version=1
nRows=4
nColumns=124
inDegrees=yes

Units are S.I. units (second, meters, Newtons, ...)
If the header above contains a line with 'inDegrees', this indicates whether rotational values are in degrees (yes) or radians (no).

endheader 
time	pelvis_tilt	pelvis_list	pelvis_rotation	pelvis_tx	pelvis_ty	pelvis_tz	hip_flexion_l	hip_adduction_l	hip_rotation_l	hip_flexion_r	hip_adduction_r	hip_rotation_r	knee_angle_l	knee_angle_r	ankle_angle_l	ankle_angle_r	subtalar_angle_l	subtalar_angle_r	mtp_angle_l	mtp_angle_r	lumbar_extension	lumbar_bending	lumbar_rotation	arm_flex_l	arm_add_l	arm_rot_l	arm_flex_r	arm_add_r	arm_rot_r	elbow_flex_l	elbow_flex_r	glut_med1_l/activation	glut_med2_l/activation	glut_med3_l/activation	glut_min1_l/activation	glut_min2_l/activation	glut_min3_l/activation	semimem_l/activation	semiten_l/activation	bifemlh_l/activation	bifemsh_l/activation	sar_l/activation	add_long_l/activation	add_brev_l/activation	add_mag1_l/activation	add_mag2_l/activation	add_mag3_l/activation	tfl_l/activation	pect_l/activation	grac_l/activation	glut_max1_l/activation	glut_max2_l/activation	glut_max3_l/activation	iliacus_l/activation	psoas_l/activation	quad_fem_l/activation	gem_l/activation	peri_l/activation	rect_fem_l/activation	vas_med_l/activation	vas_int_l/activation	vas_lat_l/activation	med_gas_l/activation	lat_gas_l/activation	soleus_l/activation	tib_post_l/activation	flex_dig_l/activation	flex_hal_l/activation	tib_ant_l/activation	per_brev_l/activation	per_long_l/activation	per_tert_l/activation	ext_dig_l/activation	ext_hal_l/activation	ercspn_l/activation	intobl_l/activation	extobl_l/activation	glut_med1_r/activation	glut_med2_r/activation	glut_med3_r/activation	glut_min1_r/activation	glut_min2_r/activation	glut_min3_r/activation	semimem_r/activation	semiten_r/activation	bifemlh_r/activation	bifemsh_r/activation	sar_r/activation	add_long_r/activation	add_brev_r/activation	add_mag1_r/activation	add_mag2_r/activation	add_mag3_r/activation	tfl_r/activation	pect_r/activation	grac_r/activation	glut_max1_r/activation	glut_max2_r/activation	glut_max3_r/activation	iliacus_r/activation	psoas_r/activation	quad_fem_r/activation	gem_r/activation	peri_r/activation	rect_fem_r/activation	vas_med_r/activation	vas_int_r/activation	vas_lat_r/activation	med_gas_r/activation	lat_gas_r/activation	soleus_r/activation	tib_post_r/activation	flex_dig_r/activation	flex_hal_r/activation	tib_ant_r/activation	per_brev_r/activation	per_long_r/activation	per_tert_r/activation	ext_dig_r/activation	ext_hal_r/activation	ercspn_r/activation	intobl_r/activation	extobl_r/activation	
          0.00000000	         -6.41682421	         -3.88465982	          6.77269612	          0.00000000	          0.88280530	         -0.01309793	        -19.14481499	         -3.48038307	          1.52874359	         33.96251031	          1.00845955	        -11.89311118	         -3.19799120	         -6.42018284	          4.51680826	         -0.34252571	          2.55409477	          0.48750092	         34.75782546	          0.28098970	          2.35305775	         -0.15693533	         -4.81569887	        -22.87625061	        -13.70968017	         -3.61955139	        -31.01132858	        -13.65420331	         17.47670155	        102.29232196	          7.20751247	          0.45971711	          0.08706916	          0.08706628	          0.70340422	          0.19664401	          0.08707140	          0.05871751	          0.05867109	          0.05000122	          0.12034062	          0.08713264	          0.38320858	          0.40780543	          0.05000623	          0.05003087	          0.05001270	          0.23339384	          0.27805392	          0.08706556	          0.05001900	          0.05001208	          0.05001244	          0.67192061	          0.72710715	          0.08706390	          0.05005351	          0.08706589	          0.05000206	          0.07414612	          0.13101981	          0.12200515	          0.34615656	          0.51273537	          0.32544530	          0.67108367	          0.76539515	          0.70743388	          0.05000165	          0.05000066	          0.05000043	          0.05000098	          0.05000055	          0.05000193	          0.06023655	          0.05000011	          0.05000099	          0.18568868	          0.05000176	          0.05001314	          0.05000901	          0.05000553	          0.05000490	          0.32469015	          0.21708146	          0.23623398	          0.40572342	          0.08708088	          0.22383896	          0.16877828	          0.13298038	          0.05000681	          0.05000139	          0.05648945	          0.08707115	          0.26972383	          0.05000168	          0.05000140	          0.05000203	          0.10298341	          0.15160709	          0.35900366	          0.09343445	          0.10344204	          0.05000015	          0.05000066	          0.05000057	          0.05000054	          0.05008063	          0.05008064	          0.05008064	          0.05008076	          0.05008075	          0.05008073	          0.05008080	          0.05008057	          0.05008058	          0.05008066	          0.05008073	          0.05008078	          0.07269106	          0.23238931	          0.15161444	
          0.04447903	         -6.65175796	         -4.04425511	          6.96808719	          0.06977167	          0.88022930	         -0.01370700	        -15.71501412	         -4.23525827	         -0.21200584	         31.40933603	          2.11832434	         -7.60131646	        -16.80115907	         -9.09969138	          1.28212577	         -3.67380485	          4.57654127	         -3.47691301	         39.05303984	          0.20571463	          3.05197590	          2.03641233	         -5.42474937	        -19.09243899	        -13.81805966	          1.40857594	        -34.66132224	        -13.58834845	         18.00728125	        107.16482894	          7.02598930	          0.26400591	          0.05000206	          0.05000036	          0.57452022	          0.11292917	          0.05000354	          0.13937635	          0.05000112	          0.05000140	          0.06910914	          0.05004017	          0.48880797	          0.23424536	          0.48791107	          0.08727239	          0.08706492	          0.33815220	          0.15968300	          0.05000160	          0.05000647	          0.05000431	          0.05000449	          0.38586946	          0.41756317	          0.05000023	          0.05000080	          0.05000049	          0.08706614	          0.08259125	          0.07526853	          0.07006713	          0.19879013	          0.29445286	          0.18689619	          0.45976508	          0.44453966	          0.40633571	          0.05000033	          0.05000106	          0.05000089	          0.05000134	          0.05000093	          0.05000187	          0.17626445	          0.05000009	          0.05000031	          0.10666963	          0.51790388	          0.73688554	          0.41865775	          0.45616308	          0.38699879	          0.18646247	          0.12466621	          0.13566413	          0.23299832	          0.05000930	          0.12854641	          0.09692788	          0.21898582	          0.23108896	          0.12246942	          0.12054564	          0.05001461	          0.15490464	          0.41257334	          0.30489729	          0.20097705	          0.05914129	          0.08706485	          0.20616862	          0.05365990	          0.15159428	          0.08706499	          0.21763205	          0.24278783	          0.19563493	          0.05008339	          0.05008339	          0.05008339	          0.05008331	          0.05008335	          0.05008336	          0.05008331	          0.05008333	          0.05008333	          0.05008327	          0.05008329	          0.05008329	          0.10120420	          0.13345617	          0.08706893	
          0.08895806	         -6.79111024	         -4.12595743	          6.27821957	          0.13333958	          0.88881306	         -0.01257529	         -9.67019899	         -5.46247889	         -2.07330426	         28.52079943	          3.98392770	         -2.62487946	        -32.85366203	        -11.25454090	         -4.78506720	         -1.79037619	          7.49096159	        -12.91945392	         30.44400504	          0.19720188	          3.35196210	          4.12522865	         -5.81048519	        -12.71313705	        -13.59538932	          6.55998112	        -33.94352578	        -13.46343661	         19.34863716	        103.60670304	          5.12403749	          0.15161297	          0.05000181	          0.05000276	          0.32993482	          0.06485445	          0.05000948	          0.08006469	          0.08628931	          0.09574381	          0.05000181	          0.11446435	          0.28071457	          0.59553429	          0.28020065	          0.05012200	          0.05000170	          0.57778852	          0.46218009	          0.19013314	          0.05002117	          0.05001002	          0.05000136	          0.22159662	          0.23979789	          0.48096618	          0.24813655	          0.05008867	          0.05000042	          0.05000018	          0.05000016	          0.05000011	          0.11416091	          0.16909819	          0.10733040	          0.26403322	          0.25529106	          0.23335091	          0.13931325	          0.15498639	          0.13482896	          0.05001576	          0.62592688	          0.27313270	          0.21602434	          0.06099792	          0.05000050	          0.12064638	          0.32871215	          0.47375177	          0.24042980	          0.26196861	          0.22225377	          0.11965047	          0.13078889	          0.11902797	          0.13380651	          0.05000256	          0.07382968	          0.23356005	          0.31988095	          0.28628924	          0.16682549	          0.06922717	          0.05005759	          0.20318848	          0.40677942	          0.36877425	          0.27696115	          0.05000069	          0.05000076	          0.11839972	          0.05000610	          0.08705941	          0.05000048	          0.13655696	          0.18424825	          0.15152590	          0.05008304	          0.05008304	          0.05008305	          0.05008303	          0.05008304	          0.05008304	          0.05008307	          0.05008307	          0.05008305	          0.05008307	          0.05008306	          0.05008305	          0.07645392	          0.07664103	          0.05000201	
          0.13343709	         -6.88863295	         -3.45713817	          4.89593761	          0.19181993	          0.90162772	         -0.01093620	         -3.08525329	         -5.50297596	         -3.23779204	         24.02992998	          5.27870711	          2.97131301	        -45.41334110	        -10.10144776	         -6.49420372	         -1.04105396	          9.95618663	        -21.48042390	         17.27449993	          0.29890975	          3.42742147	          5.13317309	         -5.89575943	         -5.56100751	        -13.49172642	         11.24311022	        -32.17465244	        -14.27024285	         14.26955981	         95.22500955	          9.19753934	          0.08706814	          0.05000099	          0.05000111	          0.18947484	          0.05000403	          0.05000384	          0.06903892	          0.15161957	          0.08705804	          0.17009419	          0.32291792	          0.20928654	          0.34200488	          0.16092248	          0.05000502	          0.05000095	          0.56086541	          0.49486317	          0.29847765	          0.05000949	          0.05000438	          0.05000103	          0.17348282	          0.17542001	          0.44355152	          0.26221692	          0.05001209	          0.05000047	          0.05000014	          0.05000012	          0.05000009	          0.08706759	          0.09711298	          0.06163766	          0.15163018	          0.14661739	          0.13401399	          0.16037159	          0.08900567	          0.07742947	          0.05003310	          0.89008098	          0.72007256	          0.17702191	          0.12898253	          0.05000063	          0.12689814	          0.26956438	          0.45844605	          0.20699761	          0.15054469	          0.13807859	          0.13323806	          0.16717727	          0.13484266	          0.07684314	          0.05000286	          0.05000477	          0.13413225	          0.19737579	          0.22481514	          0.14292929	          0.05000174	          0.05002045	          0.11670768	          0.31729675	          0.26907191	          0.19759642	          0.05000066	          0.05000065	          0.06799556	          0.05000532	          0.05000660	          0.05000084	          0.13675421	          0.14616959	          0.11794484	          0.05008305	          0.05008305	          0.05008309	          0.05008309	          0.05008306	          0.05008307	          0.05008309	          0.05008311	          0.05008311	          0.05008309	          0.05008309	          0.05008308	          0.09618693	          0.05000027	          0.05000057	
